<svg xmlns="http://www.w3.org/2000/svg" width="340" height="200" viewBox="0 0 340 200">
  <style>* { font-family: 'Segoe UI', Ubuntu, "Helvetica Neue", Sans-Serif; }</style>
  <rect x="1" y="1" width="338" height="198" rx="5" ry="5" fill="#242938" stroke="#000000" stroke-width="1" stroke-opacity="0" />
<text x="30" y="40" fill="#82aaff" font-size="22">Top Languages by Commit</text>
<g transform="translate(40,40)">
<rect y="18" width="14" height="14" fill="#00ADD8" stroke="#242938" stroke-width="1" />
<text x="16.8" y="30" fill="#27e8a7" font-size="14">Go</text>
<rect y="43.2" width="14" height="14" fill="#3178c6" stroke="#242938" stroke-width="1" />
<text x="16.8" y="55.2" fill="#27e8a7" font-size="14">TypeScript</text>
<rect y="68.4" width="14" height="14" fill="#555555" stroke="#242938" stroke-width="1" />
<text x="16.8" y="80.4" fill="#27e8a7" font-size="14">C</text>
<rect y="93.6" width="14" height="14" fill="#663399" stroke="#242938" stroke-width="1" />
<text x="16.8" y="105.6" fill="#27e8a7" font-size="14">CSS</text>
<rect y="118.8" width="14" height="14" fill="#e34c26" stroke="#242938" stroke-width="1" />
<text x="16.8" y="130.8" fill="#27e8a7" font-size="14">HTML</text>
</g>
<g transform="translate(230,120)">
<g class="arc"><path d="M0,-60A60,60,0,0,1,47.281,36.94L27.58,21.548A35,35,0,0,0,0,-35Z" fill="#00ADD8" stroke="#242938" stroke-width="2" /></g>
<g class="arc"><path d="M47.281,36.94A60,60,0,0,1,-41.68,43.16L-24.313,25.177A35,35,0,0,0,27.58,21.548Z" fill="#3178c6" stroke="#242938" stroke-width="2" /></g>
<g class="arc"><path d="M-41.68,43.16A60,60,0,0,1,-50.206,-32.854L-29.287,-19.165A35,35,0,0,0,-24.313,25.177Z" fill="#555555" stroke="#242938" stroke-width="2" /></g>
<g class="arc"><path d="M-50.206,-32.854A60,60,0,0,1,-20.521,-56.382L-11.971,-32.889A35,35,0,0,0,-29.287,-19.165Z" fill="#663399" stroke="#242938" stroke-width="2" /></g>
<g class="arc"><path d="M-20.521,-56.382A60,60,0,0,1,0,-60L0,-35A35,35,0,0,0,-11.971,-32.889Z" fill="#e34c26" stroke="#242938" stroke-width="2" /></g>
</g>
</svg>
