<svg xmlns="http://www.w3.org/2000/svg" width="340" height="200" viewBox="0 0 340 200">
  <style>* { font-family: 'Segoe UI', Ubuntu, "Helvetica Neue", Sans-Serif; }</style>
  <rect x="1" y="1" width="338" height="198" rx="5" ry="5" fill="#242938" stroke="#000000" stroke-width="1" stroke-opacity="0" />
<text x="30" y="40" fill="#82aaff" font-size="22">Commits (UTC +9.00)</text>
<g transform="translate(35,60)" color="#82aaff">
<g transform="translate(0,100)" color="#27e8a7" fill="none" font-size="10" text-anchor="middle">
<path class="domain" stroke="currentColor" d="M-1.162,0.5H280.5" />
<g class="tick" transform="translate(6.39,0)"><line stroke="currentColor" y2="6" /><text fill="currentColor" y="9" dy="0.71em">0</text></g>
<g class="tick" transform="translate(76.1,0)"><line stroke="currentColor" y2="6" /><text fill="currentColor" y="9" dy="0.71em">6</text></g>
<g class="tick" transform="translate(145.809,0)"><line stroke="currentColor" y2="6" /><text fill="currentColor" y="9" dy="0.71em">12</text></g>
<g class="tick" transform="translate(215.519,0)"><line stroke="currentColor" y2="6" /><text fill="currentColor" y="9" dy="0.71em">18</text></g>
<g class="tick" transform="translate(273.61,0)"><line stroke="currentColor" y2="6" /><text fill="currentColor" y="9" dy="0.71em">23</text></g>
</g>
<g transform="translate(-1.162,0)" color="#27e8a7" fill="none" font-size="10" text-anchor="end">
<path class="domain" stroke="currentColor" d="M-6,100.5H0.5V0.5H-6" />
<g class="tick" transform="translate(0,100.5)"><line stroke="currentColor" x2="-6" /><text fill="currentColor" x="-9" dy="0.32em">0</text></g>
<g class="tick" transform="translate(0,85.115)"><line stroke="currentColor" x2="-6" /><text fill="currentColor" x="-9" dy="0.32em">20</text></g>
<g class="tick" transform="translate(0,69.731)"><line stroke="currentColor" x2="-6" /><text fill="currentColor" x="-9" dy="0.32em">40</text></g>
<g class="tick" transform="translate(0,54.346)"><line stroke="currentColor" x2="-6" /><text fill="currentColor" x="-9" dy="0.32em">60</text></g>
<g class="tick" transform="translate(0,38.962)"><line stroke="currentColor" x2="-6" /><text fill="currentColor" x="-9" dy="0.32em">80</text></g>
<g class="tick" transform="translate(0,23.577)"><line stroke="currentColor" x2="-6" /><text fill="currentColor" x="-9" dy="0.32em">100</text></g>
<g class="tick" transform="translate(0,8.192)"><line stroke="currentColor" x2="-6" /><text fill="currentColor" x="-9" dy="0.32em">120</text></g>
</g>
<rect class="bar" data-hour="0" fill="#82aaff" x="1.162" y="96.923" width="10.456" height="3.077" />
<rect class="bar" data-hour="1" fill="#82aaff" x="12.78" y="98.462" width="10.456" height="1.538" />
<rect class="bar" data-hour="2" fill="#82aaff" x="24.398" y="99.231" width="10.456" height="0.769" />
<rect class="bar" data-hour="3" fill="#82aaff" x="36.017" y="100" width="10.456" height="0" />
<rect class="bar" data-hour="4" fill="#82aaff" x="47.635" y="100" width="10.456" height="0" />
<rect class="bar" data-hour="5" fill="#82aaff" x="59.253" y="99.231" width="10.456" height="0.769" />
<rect class="bar" data-hour="6" fill="#82aaff" x="70.871" y="90.769" width="10.456" height="9.231" />
<rect class="bar" data-hour="7" fill="#82aaff" x="82.49" y="76.923" width="10.456" height="23.077" />
<rect class="bar" data-hour="8" fill="#82aaff" x="94.108" y="35.385" width="10.456" height="64.615" />
<rect class="bar" data-hour="9" fill="#82aaff" x="105.726" y="1.538" width="10.456" height="98.462" />
<rect class="bar" data-hour="10" fill="#82aaff" x="117.344" y="26.154" width="10.456" height="73.846" />
<rect class="bar" data-hour="11" fill="#82aaff" x="128.963" y="44.615" width="10.456" height="55.385" />
<rect class="bar" data-hour="12" fill="#82aaff" x="140.581" y="50.769" width="10.456" height="49.231" />
<rect class="bar" data-hour="13" fill="#82aaff" x="152.199" y="55.385" width="10.456" height="44.615" />
<rect class="bar" data-hour="14" fill="#82aaff" x="163.817" y="62.308" width="10.456" height="37.692" />
<rect class="bar" data-hour="15" fill="#82aaff" x="175.436" y="66.923" width="10.456" height="33.077" />
<rect class="bar" data-hour="16" fill="#82aaff" x="187.054" y="73.846" width="10.456" height="26.154" />
<rect class="bar" data-hour="17" fill="#82aaff" x="198.672" y="76.154" width="10.456" height="23.846" />
<rect class="bar" data-hour="18" fill="#82aaff" x="210.29" y="78.462" width="10.456" height="21.538" />
<rect class="bar" data-hour="19" fill="#82aaff" x="221.909" y="85.385" width="10.456" height="14.615" />
<rect class="bar" data-hour="20" fill="#82aaff" x="233.527" y="88.462" width="10.456" height="11.538" />
<rect class="bar" data-hour="21" fill="#82aaff" x="245.145" y="90.769" width="10.456" height="9.231" />
<rect class="bar" data-hour="22" fill="#82aaff" x="256.763" y="93.846" width="10.456" height="6.154" />
<rect class="bar" data-hour="23" fill="#82aaff" x="268.382" y="96.154" width="10.456" height="3.846" />
<text x="220" y="130" fill="#27e8a7" font-size="10">per day hour</text>
</g>
</svg>
